<?xml version="1.0" standalone="no"?>
<svg xmlns="http://www.w3.org/2000/svg" viewBox="0 0 168.286 36" width="168.286" height="36"><g fill="#ff5576" color="#ff5576" transform="translate(0 6) scale(0.2666667)"><svg width="50.0" height="90.0" x="0.0" y="0.0" viewBox="0 0 50 90"><title></title><path d="M50,37.83c-3.06,0-5.47-.91-6.44-2.45a2.92,2.92,0,0,1-.17-2.9c1-2.07,3.45-3.31,6.61-3.31s5.64,1.24,6.61,3.31a2.92,2.92,0,0,1-.17,2.9C55.47,36.91,53.06,37.83,50,37.83Zm0-5.65c-1.91,0-3.44.62-3.9,1.59.09.27,1.27,1.06,3.9,1.06s3.81-.8,3.92-1.07h0C53.44,32.8,51.91,32.18,50,32.18Z" transform="translate(-25 -5)"></path><path d="M65.93,44.81a1.5,1.5,0,0,0-1.3-.26l-4.14,1.1V44A1.5,1.5,0,0,0,59,42.5H41a1.5,1.5,0,0,0-1.5,1.5v7.24l-4.92,1.31A1.5,1.5,0,0,0,33.51,54V65a1.5,1.5,0,0,0,1.9,1.45l4.13-1.13V82A1.5,1.5,0,0,0,41,83.5h1.64V87a1.5,1.5,0,0,0,1.5,1.5,1.53,1.53,0,0,0,.41-.06L59.4,84.2a1.5,1.5,0,0,0,1.09-1.44V59.57l4.92-1.35a1.5,1.5,0,0,0,1.1-1.45V46A1.5,1.5,0,0,0,65.93,44.81Zm-23.38.69H57.49v1l-14.94,4ZM45.68,85V83.5H51Zm11.8-4.51H42.54v-16l14.94-4.1Zm6-24.87L36.51,63V55.15l27-7.2Z" transform="translate(-25 -5)"></path><path d="M64.3,29.43c-3-1.36-6.3-2.89-6.3-4.43V6.5A1.5,1.5,0,0,0,56.5,5h-13A1.5,1.5,0,0,0,42,6.5V25c0,1.54-3.35,3.08-6.3,4.43C30.93,31.62,25,34.34,25,40V89.25A5.76,5.76,0,0,0,30.75,95h38.5A5.76,5.76,0,0,0,75,89.25V40C75,34.34,69.07,31.62,64.3,29.43ZM72,89.25A2.75,2.75,0,0,1,69.25,92H30.75A2.75,2.75,0,0,1,28,89.25V40c0-3.73,4.55-5.82,9-7.84,4.14-1.9,8-3.69,8-7.16V21H55v4c0,3.47,3.91,5.26,8,7.16,4.4,2,9,4.11,9,7.84Z" transform="translate(-25 -5)"></path></svg></g><path fill="#0b0cac" fill-rule="nonzero" d="M0 17.40L0 0.89L5.30 0.89L5.30 13.18L13.78 13.18L13.78 17.40L0 17.40ZM20.62 3.24L15.84 3.24L15.84 0L20.62 0L20.62 3.24ZM20.62 17.40L15.84 17.40L15.84 4.73L20.62 4.73L20.62 17.40ZM30.22 4.44Q33.34 4.44 35.27 5.77Q37.20 7.10 37.20 9.84L37.20 9.84L32.57 9.84Q32.57 7.68 30.22 7.68L30.22 7.68Q27.86 7.68 27.86 10.39L27.86 10.39L27.86 11.76Q27.86 14.45 30.31 14.45L30.31 14.45Q32.76 14.45 32.76 12.24L32.76 12.24L37.20 12.24Q37.20 15.00 35.27 16.34Q33.34 17.69 30.22 17.69L30.22 17.69Q26.88 17.69 24.98 16.01Q23.09 14.33 23.09 11.06L23.09 11.06Q23.09 7.80 24.98 6.12Q26.88 4.44 30.22 4.44L30.22 4.44ZM46.22 4.44Q49.56 4.44 51.47 6.13Q53.38 7.82 53.38 11.06L53.38 11.06Q53.38 14.30 51.47 16.00Q49.56 17.69 46.22 17.69L46.22 17.69Q42.89 17.69 40.99 16.01Q39.10 14.33 39.10 11.06L39.10 11.06Q39.10 7.80 40.99 6.12Q42.89 4.44 46.22 4.44L46.22 4.44ZM46.22 7.68Q43.87 7.68 43.87 10.39L43.87 10.39L43.87 11.76Q43.87 14.45 46.22 14.45L46.22 14.45Q48.60 14.45 48.60 11.76L48.60 11.76L48.60 10.39Q48.60 7.68 46.22 7.68L46.22 7.68ZM63.38 4.42Q63.94 4.42 64.37 4.55Q64.80 4.68 64.80 4.70L64.80 4.70L64.80 8.71L63.26 8.71Q61.78 8.71 61.12 9.48Q60.46 10.25 60.46 11.76L60.46 11.76L60.46 17.40L55.68 17.40L55.68 4.73L59.59 4.73L59.90 6.65Q60.34 5.54 61.27 4.98Q62.21 4.42 63.38 4.42L63.38 4.42ZM73.27 4.44Q76.75 4.44 78.59 6.07Q80.42 7.70 80.42 11.06L80.42 11.06L80.42 11.88L70.92 11.88Q70.92 13.25 71.53 13.94Q72.14 14.64 73.46 14.64L73.46 14.64Q74.66 14.64 75.23 14.14Q75.79 13.63 75.79 12.79L75.79 12.79L80.42 12.79Q80.42 15.10 78.67 16.39Q76.92 17.69 73.56 17.69L73.56 17.69Q70.03 17.69 68.09 16.04Q66.14 14.40 66.14 11.06L66.14 11.06Q66.14 7.80 68.04 6.12Q69.94 4.44 73.27 4.44L73.27 4.44ZM73.46 7.49Q71.21 7.49 70.94 9.62L70.94 9.62L75.60 9.62Q75.60 8.64 75.04 8.06Q74.47 7.49 73.46 7.49L73.46 7.49ZM88.75 4.44Q91.30 4.44 93.06 5.44Q94.82 6.43 94.82 8.52L94.82 8.52L90.38 8.52Q90.38 7.82 89.76 7.54L89.76 7.54Q89.33 7.30 88.68 7.30L88.68 7.30Q86.95 7.30 86.95 8.11L86.95 8.11Q86.95 8.57 87.55 8.76Q88.15 8.95 89.52 9.17L89.52 9.17Q91.20 9.41 92.33 9.73Q93.46 10.06 94.30 10.88Q95.14 11.71 95.14 13.20L95.14 13.20Q95.14 15.62 93.32 16.66Q91.51 17.69 88.58 17.69L88.58 17.69Q86.90 17.69 85.42 17.22Q83.93 16.75 82.99 15.77Q82.06 14.78 82.06 13.27L82.06 13.27L86.50 13.27L86.50 13.37Q86.52 14.18 87.18 14.51Q87.84 14.83 88.58 14.83L88.58 14.83Q90.58 14.83 90.58 13.90L90.58 13.90Q90.58 13.42 89.95 13.20Q89.33 12.98 87.91 12.74L87.91 12.74Q86.21 12.46 85.12 12.12Q84.02 11.78 83.21 10.98Q82.39 10.18 82.39 8.74L82.39 8.74Q82.39 6.41 84.16 5.42Q85.92 4.44 88.75 4.44L88.75 4.44ZM110.18 11.66Q110.18 14.76 108.42 16.22Q106.66 17.69 103.34 17.69L103.34 17.69Q100.03 17.69 98.27 16.22Q96.50 14.76 96.50 11.66L96.50 11.66L96.50 11.45L101.47 11.45L101.47 11.64Q101.47 12.77 101.89 13.25Q102.31 13.73 103.18 13.73L103.18 13.73Q104.04 13.73 104.46 13.25Q104.88 12.77 104.88 11.64L104.88 11.64L104.88 0.89L110.18 0.89L110.18 11.66ZM121.61 0.60Q125.28 0.60 127.42 2.44Q129.55 4.27 129.55 7.68L129.55 7.68L124.49 7.68Q124.49 6.24 123.73 5.40Q122.98 4.56 121.58 4.56L121.58 4.56Q119.98 4.56 119.22 5.57Q118.46 6.58 118.46 8.38L118.46 8.38L118.46 9.91Q118.46 11.69 119.22 12.71Q119.98 13.73 121.54 13.73L121.54 13.73Q123.07 13.73 123.86 12.94Q124.66 12.14 124.66 10.70L124.66 10.70L129.55 10.70Q129.55 14.09 127.48 15.89Q125.40 17.69 121.61 17.69L121.61 17.69Q117.38 17.69 115.21 15.53Q113.04 13.37 113.04 9.14L113.04 9.14Q113.04 4.92 115.21 2.76Q117.38 0.60 121.61 0.60L121.61 0.60ZM141.67 0.89Q143.21 0.89 144.41 1.60Q145.61 2.30 146.28 3.54Q146.95 4.78 146.95 6.31L146.95 6.31L146.95 6.62Q146.95 8.16 146.28 9.41Q145.61 10.66 144.41 11.36Q143.21 12.07 141.67 12.07L141.67 12.07L137.71 12.07L137.71 17.40L132.41 17.40L132.41 0.89L141.67 0.89ZM137.71 4.80L137.71 8.21L139.90 8.21Q140.74 8.21 141.16 7.78Q141.58 7.34 141.58 6.60L141.58 6.60L141.58 6.41Q141.58 5.64 141.16 5.22Q140.74 4.80 139.90 4.80L139.90 4.80L137.71 4.80Z" transform="translate(21.334, 9.3)"></path></svg>